<?xml version="1.0" standalone="no"?>
<!DOCTYPE svg PUBLIC "-//W3C//DTD SVG 20010904//EN"
 "http://www.w3.org/TR/2001/REC-SVG-20010904/DTD/svg10.dtd">
<svg version="1.0" xmlns="http://www.w3.org/2000/svg"
 width="512.000000pt" height="512.000000pt" viewBox="0 0 512.000000 512.000000"
 preserveAspectRatio="xMidYMid meet">
<metadata>
Created by potrace 1.11, written by Peter Selinger 2001-2013
</metadata>
<g transform="translate(0.000000,512.000000) scale(0.100000,-0.100000)"
fill="#000000" stroke="none">
<path d="M452 4443 l3 -116 488 -200 c268 -110 487 -203 487 -206 0 -3 -220
-97 -488 -208 l-487 -201 -3 -117 c-2 -109 -1 -117 15 -111 10 4 294 124 631
268 l613 261 -3 111 -3 110 -620 262 c-341 145 -624 263 -628 263 -4 1 -6 -51
-5 -116z"/>
<path d="M1814 2617 c-3 -8 -4 -47 -2 -88 l3 -74 773 -3 772 -2 0 90 0 90
-770 0 c-636 0 -772 -2 -776 -13z"/>
<path d="M3400 1022 c-61 -95 -110 -179 -110 -186 0 -11 37 -74 174 -294 l46
-73 97 3 98 3 43 78 44 77 113 0 113 0 44 -77 43 -78 98 -3 97 -3 46 73 c143
231 174 285 172 299 -4 22 -211 348 -223 351 -5 2 -50 2 -98 0 -67 -3 -87 -7
-84 -16 3 -7 43 -71 89 -142 46 -71 94 -145 105 -164 l22 -35 -49 -80 c-27
-44 -50 -83 -50 -87 0 -4 24 -8 53 -10 52 -3 52 -3 -16 -8 l-68 -5 -116 208
-115 207 -63 0 -63 0 -116 -207 -115 -208 -68 5 -68 5 53 3 c28 2 52 6 52 10
0 4 -23 43 -50 86 l-49 80 21 35 c12 20 62 98 111 174 49 76 87 140 85 142 -1
1 -45 5 -96 7 l-92 4 -110 -174z m138 -9 c-10 -2 -26 -2 -35 0 -10 3 -2 5 17
5 19 0 27 -2 18 -5z m765 0 c-7 -2 -21 -2 -30 0 -10 3 -4 5 12 5 17 0 24 -2
18 -5z m64 1 c-3 -3 -12 -4 -19 -1 -8 3 -5 6 6 6 11 1 17 -2 13 -5z m-387
-320 c0 -2 -34 -4 -76 -4 -42 0 -74 3 -72 8 2 4 18 35 37 70 l34 63 39 -66
c21 -37 38 -68 38 -71z"/>
</g>
</svg>
